<?xml version="1.0" standalone="no"?>
<!DOCTYPE svg PUBLIC "-//W3C//DTD SVG 20010904//EN"
 "http://www.w3.org/TR/2001/REC-SVG-20010904/DTD/svg10.dtd">
<svg version="1.0" xmlns="http://www.w3.org/2000/svg"
 width="500.000000pt" height="500.000000pt" viewBox="0 0 500.000000 500.000000"
 preserveAspectRatio="xMidYMid meet">
<metadata>
Created by potrace 1.14, written by Peter Selinger 2001-2017
</metadata>
<g transform="translate(0.000000,500.000000) scale(0.100000,-0.100000)"
fill="#000000" stroke="none">
<path d="M1492 4548 l4 -93 73 -133 c77 -140 100 -164 140 -143 47 26 40 49
-85 261 -66 110 -123 200 -127 200 -5 0 -7 -42 -5 -92z"/>
<path d="M1903 4191 c-64 -22 -121 -60 -169 -114 -40 -43 -94 -150 -94 -184 0
-16 -10 -25 -45 -36 -170 -58 -305 -287 -305 -517 0 -71 -1 -74 -39 -116 -52
-55 -95 -142 -123 -246 -20 -70 -23 -107 -23 -243 0 -154 1 -162 29 -225 16
-36 28 -74 28 -85 -1 -11 -4 -60 -8 -110 -12 -166 51 -349 155 -455 47 -47 57
-64 68 -115 31 -145 138 -286 265 -350 39 -19 78 -35 86 -35 34 0 123 -74 161
-135 86 -136 138 -262 150 -365 7 -55 6 -58 -21 -73 -40 -23 -68 -74 -68 -124
0 -78 71 -132 175 -133 l40 -1 -27 -15 c-37 -20 -58 -63 -58 -120 0 -40 5 -51
38 -85 31 -30 48 -39 90 -45 l51 -6 -29 -25 c-61 -51 -63 -137 -4 -194 l35
-34 234 0 234 0 31 30 c61 59 62 147 0 198 l-29 25 51 6 c42 6 59 15 90 45 34
35 38 44 38 91 0 47 -4 56 -39 91 l-39 39 44 0 c90 0 153 48 161 123 6 52 -14
98 -54 124 -23 15 -60 19 -258 23 l-230 5 -5 735 c-4 647 -7 735 -20 738 -9 1
-24 -3 -34 -11 -16 -12 -17 -19 -5 -97 14 -102 7 -535 -12 -620 -22 -105 -77
-187 -164 -244 -57 -38 -170 -74 -198 -63 -22 8 -22 44 1 50 9 3 -4 5 -30 6
-56 1 -142 32 -180 63 l-27 23 18 80 c20 94 34 118 78 142 47 25 33 28 -18 4
-23 -12 -46 -21 -50 -21 -3 0 -14 19 -23 42 -9 24 -44 72 -77 107 -63 66 -64
50 -2 -27 20 -24 42 -64 49 -90 15 -49 13 -75 -13 -156 -15 -46 -16 -48 -47
-42 -48 10 -134 66 -182 119 -57 63 -102 157 -116 240 -10 60 -14 69 -49 93
-58 40 -124 151 -153 259 -23 84 -25 240 -3 262 4 3 25 1 48 -6 53 -16 115
-79 158 -161 18 -36 47 -80 65 -98 36 -39 105 -77 156 -86 l35 -6 -36 14 c-89
34 -151 98 -189 196 -12 30 -37 79 -55 110 -22 35 -39 80 -47 125 l-13 70 -3
-62 c-2 -35 -4 -63 -5 -63 -2 0 -20 9 -42 20 -22 11 -47 20 -57 20 -72 0 -106
275 -59 474 24 101 80 215 123 251 l30 25 40 -22 c22 -13 78 -53 124 -91 70
-56 84 -64 84 -47 0 12 -22 45 -49 73 -53 57 -79 116 -92 204 -7 56 -7 55 -6
-24 1 -46 0 -83 -2 -83 -3 0 -22 12 -42 26 -47 32 -55 71 -35 174 33 173 127
321 227 358 67 25 77 24 119 -14 40 -36 51 -56 28 -52 -16 4 -24 -90 -20 -209
3 -64 7 -83 18 -83 8 0 14 1 15 3 1 1 4 55 8 119 3 64 10 120 14 124 4 4 34
10 66 12 l58 4 7 -127 c7 -130 10 -150 27 -140 14 9 12 278 -3 293 -7 7 -41
12 -84 12 -71 0 -73 1 -93 33 -11 18 -30 42 -41 52 -26 23 -21 62 17 142 46
98 142 173 248 192 32 6 60 11 62 11 2 0 3 11 3 25 0 23 -4 25 -42 24 -24 0
-67 -8 -95 -18z"/>
<path d="M772 3808 l3 -53 145 -87 c141 -85 183 -101 208 -76 18 18 15 63 -5
80 -25 22 -327 188 -342 188 -8 0 -11 -16 -9 -52z"/>
<path d="M3394 3645 c-9 -23 4 -47 23 -43 22 4 30 38 11 49 -19 13 -28 11 -34
-6z"/>
<path d="M1994 3625 c-4 -8 -4 -46 -2 -84 5 -101 50 -141 103 -91 l22 20 18
-20 c25 -28 49 -25 78 10 29 34 43 112 28 153 -16 43 -31 23 -31 -41 0 -60
-19 -102 -45 -102 -13 0 -30 44 -37 99 -6 45 -25 33 -31 -20 -7 -54 -20 -79
-43 -79 -21 0 -34 43 -34 111 0 56 -13 78 -26 44z"/>
<path d="M2311 3605 c-56 -65 -33 -165 40 -165 52 0 67 -45 21 -65 -12 -5 -22
-13 -22 -17 0 -16 21 -18 49 -4 53 28 49 99 -7 112 -72 17 -93 65 -51 118 17
21 29 27 53 24 22 -2 31 1 31 12 0 10 -13 16 -41 18 -36 3 -45 -1 -73 -33z"/>
<path d="M2605 3613 c18 -79 46 -168 55 -177 25 -24 100 113 100 180 0 39 -14
22 -44 -55 -15 -39 -31 -71 -35 -71 -3 0 -17 32 -31 72 -14 39 -31 74 -38 76
-9 3 -11 -4 -7 -25z"/>
<path d="M2842 3633 c-42 -17 -57 -138 -22 -173 24 -24 48 -25 79 -4 21 15 23
15 38 -5 11 -17 18 -19 29 -10 11 9 11 13 -1 26 -18 17 -19 72 -4 126 13 47 4
60 -19 29 -17 -22 -17 -22 -30 -2 -11 19 -42 25 -70 13z m62 -45 c11 -42 6
-74 -14 -96 -12 -12 -25 -22 -30 -22 -15 0 -30 36 -30 70 0 44 17 70 44 70 16
0 26 -7 30 -22z"/>
<path d="M3067 3499 c-22 -13 -22 -45 -1 -53 19 -7 44 10 44 29 0 21 -23 34
-43 24z"/>
<path d="M3221 3497 c-13 -13 -15 -44 -2 -51 17 -11 41 6 41 29 0 26 -22 39
-39 22z"/>
<path d="M3399 3498 c-1 -2 -3 -12 -4 -23 -2 -11 -6 -32 -10 -47 -10 -39 9
-36 34 6 27 42 27 66 1 66 -11 0 -21 -1 -21 -2z"/>
<path d="M1377 2934 c-3 -31 -14 -73 -25 -95 -22 -44 -13 -52 16 -14 22 28 32
32 32 12 0 -26 59 -96 103 -121 58 -34 68 -33 23 3 -82 65 -126 141 -126 215
0 65 -16 65 -23 0z"/>
<path d="M505 2858 c-2 -7 -5 -29 -7 -50 -4 -34 -2 -36 32 -42 19 -3 107 -6
195 -6 174 1 198 7 198 54 0 54 -9 56 -220 56 -146 0 -195 -3 -198 -12z"/>
<path d="M1869 2265 c24 -51 92 -128 137 -156 19 -11 37 -20 39 -18 2 2 0 20
-5 39 -4 19 -8 27 -9 18 -1 -10 -6 -18 -12 -18 -12 0 -127 113 -152 150 -14
19 -13 16 2 -15z"/>
<path d="M922 1968 l-152 -92 0 -53 c0 -29 3 -53 6 -53 9 0 158 80 272 147 81
48 92 57 92 82 0 29 -26 61 -51 61 -8 0 -83 -41 -167 -92z"/>
<path d="M1953 1913 c26 -2 67 -2 90 0 23 2 2 3 -48 3 -49 0 -68 -1 -42 -3z"/>
</g>
</svg>
